<svg width="23" height="21" viewBox="0 0 23 21" fill="none" xmlns="http://www.w3.org/2000/svg">
<g clip-path="url(#clip0_6_111)">
<path d="M9.91901 16.702L6.16701 12.95C6.05233 12.8161 5.9924 12.6438 5.99921 12.4677C6.00601 12.2915 6.07905 12.1244 6.20371 11.9997C6.32838 11.875 6.4955 11.802 6.67167 11.7952C6.84784 11.7884 7.0201 11.8483 7.15401 11.963L9.91901 14.7L15.967 8.652C16.1009 8.53732 16.2732 8.4774 16.4493 8.4842C16.6255 8.49101 16.7926 8.56404 16.9173 8.68871C17.042 8.81337 17.115 8.98049 17.1218 9.15666C17.1286 9.33284 17.0687 9.50509 16.954 9.639L9.91901 16.702Z" fill="#1B1B1E"/>
<path d="M21.175 2.8H18.9V4.2H21V19.6H1.40003V4.2H3.50003V2.8H1.22503C1.06139 2.80273 0.899901 2.83767 0.749774 2.90283C0.599647 2.96799 0.463827 3.06208 0.35007 3.17974C0.236314 3.2974 0.14685 3.43631 0.0867893 3.58855C0.0267282 3.74078 -0.00275376 3.90336 2.73479e-05 4.067V19.733C-0.00275376 19.8966 0.0267282 20.0592 0.0867893 20.2114C0.14685 20.3637 0.236314 20.5026 0.35007 20.6203C0.463827 20.7379 0.599647 20.832 0.749774 20.8972C0.899901 20.9623 1.06139 20.9973 1.22503 21H21.175C21.3387 20.9973 21.5002 20.9623 21.6503 20.8972C21.8004 20.832 21.9362 20.7379 22.05 20.6203C22.1637 20.5026 22.2532 20.3637 22.3133 20.2114C22.3733 20.0592 22.4028 19.8966 22.4 19.733V4.067C22.4028 3.90336 22.3733 3.74078 22.3133 3.58855C22.2532 3.43631 22.1637 3.2974 22.05 3.17974C21.9362 3.06208 21.8004 2.96799 21.6503 2.90283C21.5002 2.83767 21.3387 2.80273 21.175 2.8Z" fill="#1B1B1E"/>
<path d="M5.59999 5.6C5.78565 5.6 5.96369 5.53547 6.09497 5.42061C6.22624 5.30574 6.29999 5.14995 6.29999 4.9875V1.3125C6.29999 1.15006 6.22624 0.994268 6.09497 0.879402C5.96369 0.764536 5.78565 0.700005 5.59999 0.700005C5.41434 0.700005 5.23629 0.764536 5.10502 0.879402C4.97374 0.994268 4.89999 1.15006 4.89999 1.3125V4.9875C4.89999 5.14995 4.97374 5.30574 5.10502 5.42061C5.23629 5.53547 5.41434 5.6 5.59999 5.6Z" fill="#1B1B1E"/>
<path d="M16.8 5.6C16.9857 5.6 17.1637 5.53547 17.295 5.42061C17.4263 5.30574 17.5 5.14995 17.5 4.9875V1.3125C17.5 1.15006 17.4263 0.994268 17.295 0.879402C17.1637 0.764536 16.9857 0.700005 16.8 0.700005C16.6144 0.700005 16.4363 0.764536 16.305 0.879402C16.1738 0.994268 16.1 1.15006 16.1 1.3125V4.9875C16.1 5.14995 16.1738 5.30574 16.305 5.42061C16.4363 5.53547 16.6144 5.6 16.8 5.6Z" fill="#1B1B1E"/>
<path d="M16.1 2.8H7.69998V4.2H16.1V2.8Z" fill="#1B1B1E"/>
<path d="M6.29999 2.8H1.39999V4.2H6.29999V2.8Z" fill="#1B1B1E"/>
</g>
<defs>
<clipPath id="clip0_6_111">
<rect width="22.4" height="21" fill="white"/>
</clipPath>
</defs>
</svg>
