<svg width="24" height="24" viewBox="0 0 24 24" fill="none" xmlns="http://www.w3.org/2000/svg">
<path fill-rule="evenodd" clip-rule="evenodd" d="M19.3334 22.6666C20.2174 22.6666 21.0653 22.3155 21.6904 21.6903C22.3155 21.0652 22.6667 20.2174 22.6667 19.3333C22.6667 18.4493 22.3155 17.6014 21.6904 16.9763C21.0653 16.3512 20.2174 16 19.3334 16C18.4493 16 17.6015 16.3512 16.9763 16.9763C16.3512 17.6014 16 18.4493 16 19.3333C16 20.2174 16.3512 21.0652 16.9763 21.6903C17.6015 22.3155 18.4493 22.6666 19.3334 22.6666ZM19.3334 24C20.571 24 21.758 23.5083 22.6332 22.6331C23.5084 21.758 24 20.571 24 19.3333C24 18.0956 23.5084 16.9086 22.6332 16.0335C21.758 15.1583 20.571 14.6666 19.3334 14.6666C18.0957 14.6666 16.9087 15.1583 16.0335 16.0335C15.1584 16.9086 14.6667 18.0956 14.6667 19.3333C14.6667 20.571 15.1584 21.758 16.0335 22.6331C16.9087 23.5083 18.0957 24 19.3334 24Z" fill="#1B1B1E"/>
<path fill-rule="evenodd" clip-rule="evenodd" d="M19.3334 17C19.5102 17 19.6797 17.0702 19.8048 17.1952C19.9298 17.3203 20 17.4898 20 17.6667V19.0573L20.4714 19.5287C20.5928 19.6544 20.66 19.8228 20.6585 19.9976C20.657 20.1724 20.5868 20.3396 20.4632 20.4632C20.3396 20.5868 20.1724 20.6569 19.9976 20.6584C19.8228 20.66 19.6544 20.5928 19.5287 20.4713L18.6667 19.6093V17.6667C18.6667 17.4898 18.7369 17.3203 18.8619 17.1952C18.987 17.0702 19.1565 17 19.3334 17ZM5.33335 11.3333H4.00002V12.6667H5.33335V11.3333ZM4.00002 9.99998C3.6464 9.99998 3.30726 10.1405 3.05721 10.3905C2.80716 10.6406 2.66669 10.9797 2.66669 11.3333V12.6667C2.66669 13.0203 2.80716 13.3594 3.05721 13.6095C3.30726 13.8595 3.6464 14 4.00002 14H5.33335C5.68698 14 6.02611 13.8595 6.27616 13.6095C6.52621 13.3594 6.66669 13.0203 6.66669 12.6667V11.3333C6.66669 10.9797 6.52621 10.6406 6.27616 10.3905C6.02611 10.1405 5.68698 9.99998 5.33335 9.99998H4.00002ZM10.6667 11.3333H9.33335V12.6667H10.6667V11.3333ZM9.33335 9.99998C8.97973 9.99998 8.64059 10.1405 8.39054 10.3905C8.1405 10.6406 8.00002 10.9797 8.00002 11.3333V12.6667C8.00002 13.0203 8.1405 13.3594 8.39054 13.6095C8.64059 13.8595 8.97973 14 9.33335 14H10.6667C11.0203 14 11.3594 13.8595 11.6095 13.6095C11.8595 13.3594 12 13.0203 12 12.6667V11.3333C12 10.9797 11.8595 10.6406 11.6095 10.3905C11.3594 10.1405 11.0203 9.99998 10.6667 9.99998H9.33335ZM16 11.3333H14.6667V12.6667H16V11.3333ZM14.6667 9.99998C14.3131 9.99998 13.9739 10.1405 13.7239 10.3905C13.4738 10.6406 13.3334 10.9797 13.3334 11.3333V12.6667C13.3334 13.0203 13.4738 13.3594 13.7239 13.6095C13.9739 13.8595 14.3131 14 14.6667 14H16C16.3536 14 16.6928 13.8595 16.9428 13.6095C17.1929 13.3594 17.3334 13.0203 17.3334 12.6667V11.3333C17.3334 10.9797 17.1929 10.6406 16.9428 10.3905C16.6928 10.1405 16.3536 9.99998 16 9.99998H14.6667ZM5.33335 16.6667H4.00002V18H5.33335V16.6667ZM4.00002 15.3333C3.6464 15.3333 3.30726 15.4738 3.05721 15.7238C2.80716 15.9739 2.66669 16.313 2.66669 16.6667V18C2.66669 18.3536 2.80716 18.6927 3.05721 18.9428C3.30726 19.1928 3.6464 19.3333 4.00002 19.3333H5.33335C5.68698 19.3333 6.02611 19.1928 6.27616 18.9428C6.52621 18.6927 6.66669 18.3536 6.66669 18V16.6667C6.66669 16.313 6.52621 15.9739 6.27616 15.7238C6.02611 15.4738 5.68698 15.3333 5.33335 15.3333H4.00002ZM10.6667 16.6667H9.33335V18H10.6667V16.6667ZM9.33335 15.3333C8.97973 15.3333 8.64059 15.4738 8.39054 15.7238C8.1405 15.9739 8.00002 16.313 8.00002 16.6667V18C8.00002 18.3536 8.1405 18.6927 8.39054 18.9428C8.64059 19.1928 8.97973 19.3333 9.33335 19.3333H10.6667C11.0203 19.3333 11.3594 19.1928 11.6095 18.9428C11.8595 18.6927 12 18.3536 12 18V16.6667C12 16.313 11.8595 15.9739 11.6095 15.7238C11.3594 15.4738 11.0203 15.3333 10.6667 15.3333H9.33335Z" fill="#1B1B1E"/>
<path fill-rule="evenodd" clip-rule="evenodd" d="M1.33333 4.00002C1.33333 3.8232 1.40357 3.65364 1.5286 3.52861C1.65362 3.40359 1.82319 3.33335 2 3.33335H5.33333V2.00002H2C1.46957 2.00002 0.960859 2.21073 0.585787 2.5858C0.210714 2.96087 0 3.46958 0 4.00002V20C0 20.5304 0.210714 21.0392 0.585787 21.4142C0.960859 21.7893 1.46957 22 2 22H15.5033C15.219 21.5928 15.0018 21.1426 14.86 20.6667H2C1.82319 20.6667 1.65362 20.5964 1.5286 20.4714C1.40357 20.3464 1.33333 20.1768 1.33333 20V4.00002ZM18.6667 14.7133C19.1089 14.6501 19.5578 14.6501 20 14.7133V4.00002C20 3.46958 19.7893 2.96087 19.4142 2.5858C19.0391 2.21073 18.5304 2.00002 18 2.00002H16V3.33335H18C18.1768 3.33335 18.3464 3.40359 18.4714 3.52861C18.5964 3.65364 18.6667 3.8232 18.6667 4.00002V14.7133ZM6.66667 3.33335H13.7087V2.00002H6.66667V3.33335Z" fill="#1B1B1E"/>
<path fill-rule="evenodd" clip-rule="evenodd" d="M20 8H1.33334V6.66667H20V8Z" fill="#1B1B1E"/>
<path d="M4.00003 0.666667C4.00003 0.489856 4.07027 0.320287 4.19529 0.195262C4.32032 0.070238 4.48989 0 4.6667 0C4.84351 0 5.01308 0.070238 5.1381 0.195262C5.26313 0.320287 5.33336 0.489856 5.33336 0.666667V4C5.33336 4.17681 5.26313 4.34638 5.1381 4.4714C5.01308 4.59643 4.84351 4.66667 4.6667 4.66667C4.48989 4.66667 4.32032 4.59643 4.19529 4.4714C4.07027 4.34638 4.00003 4.17681 4.00003 4V0.666667ZM13.3334 0.666667C13.3334 0.489856 13.4036 0.320287 13.5286 0.195262C13.6536 0.070238 13.8232 0 14 0C14.1768 0 14.3464 0.070238 14.4714 0.195262C14.5965 0.320287 14.6667 0.489856 14.6667 0.666667V4C14.6667 4.17681 14.5965 4.34638 14.4714 4.4714C14.3464 4.59643 14.1768 4.66667 14 4.66667C13.8232 4.66667 13.6536 4.59643 13.5286 4.4714C13.4036 4.34638 13.3334 4.17681 13.3334 4V0.666667Z" fill="#1B1B1E"/>
</svg>
