<svg width="20" height="20" viewBox="0 0 20 20" fill="none" xmlns="http://www.w3.org/2000/svg">
<path d="M20.2143 3.26786C20.2143 2.34434 19.8474 1.45865 19.1944 0.805617C18.5414 0.152588 17.6557 -0.214279 16.7321 -0.214279H3.26785C2.34433 -0.214279 1.45863 0.152588 0.805602 0.805617C0.152573 1.45865 -0.214294 2.34434 -0.214294 3.26786V16.7322C-0.214294 17.6557 0.152573 18.5414 0.805602 19.1944C1.45863 19.8474 2.34433 20.2143 3.26785 20.2143H16.7321C17.6557 20.2143 18.5414 19.8474 19.1944 19.1944C19.8474 18.5414 20.2143 17.6557 20.2143 16.7322V3.26786ZM1.17856 7.21429H5.82142V12.7857H1.17856V7.21429ZM12.7857 12.7857H7.21428V7.21429H12.7857V12.7857ZM1.17856 14.1786H5.82142V18.8214H3.26785C2.71374 18.8214 2.18232 18.6013 1.7905 18.2095C1.39868 17.8177 1.17856 17.2863 1.17856 16.7322V14.1786ZM12.7857 18.8214H7.21428V14.1786H12.7857V18.8214ZM18.8214 16.7322C18.8214 17.2863 18.6013 17.8177 18.2095 18.2095C17.8177 18.6013 17.2862 18.8214 16.7321 18.8214H14.1786V14.1786H18.8214V16.7322ZM18.8214 7.21429V12.7857H14.1786V7.21429H18.8214ZM1.17856 3.26786C1.17856 2.71375 1.39868 2.18233 1.7905 1.79052C2.18232 1.3987 2.71374 1.17858 3.26785 1.17858H16.7321C17.2862 1.17858 17.8177 1.3987 18.2095 1.79052C18.6013 2.18233 18.8214 2.71375 18.8214 3.26786V5.82144H1.17856V3.26786Z" fill="#1B1B1E"/>
</svg>
