<svg width="14" height="8" viewBox="0 0 14 8" fill="none" xmlns="http://www.w3.org/2000/svg">
<path d="M13.6317 0.355291C13.5157 0.242666 13.3779 0.153312 13.2262 0.0923468C13.0745 0.0313812 12.9119 -4.69955e-08 12.7477 -5.40881e-08C12.5835 -6.11808e-08 12.4209 0.0313811 12.2692 0.0923467C12.1175 0.153312 11.9798 0.242665 11.8638 0.355291L6.99891 5.06911L2.13404 0.355291C1.89961 0.128131 1.58164 0.000513892 1.2501 0.000513877C0.91855 0.000513863 0.600581 0.128131 0.366142 0.355291C0.131704 0.582451 -3.8927e-08 0.890545 -5.29694e-08 1.2118C-6.70118e-08 1.53305 0.131704 1.84114 0.366142 2.0683L6.12123 7.64471C6.23722 7.75734 6.375 7.84669 6.52668 7.90766C6.67836 7.96862 6.84096 8 7.00518 8C7.16939 8 7.33199 7.96862 7.48367 7.90766C7.63535 7.84669 7.77313 7.75734 7.88913 7.64471L13.6442 2.0683C14.1207 1.60664 14.1207 0.829104 13.6317 0.355291Z" fill="#CEA7A1"/>
</svg>
